<?xml version="1.0" encoding="utf-8"?>
<!-- Generator: Adobe Illustrator 24.1.2, SVG Export Plug-In . SVG Version: 6.00 Build 0)  -->
<svg version="1.1" id="Capa_1" xmlns="http://www.w3.org/2000/svg" xmlns:xlink="http://www.w3.org/1999/xlink" x="0px" y="0px"
	 viewBox="0 0 61 61" style="enable-background:new 0 0 61 61;" xml:space="preserve">
<style type="text/css">
	.st0{fill:none;stroke:#FFFFFF;stroke-width:3;stroke-miterlimit:10;}
	.st1{fill:#FFFFFF;}
</style>
<g id="icon_1_" transform="translate(611 403)">
	<circle class="st0" cx="-580.5" cy="-372.5" r="29"/>
	<g>
		<path class="st1" d="M-560.35-362.13l-0.77-11.8c-0.06-0.96-0.86-1.71-1.82-1.71h-1.64c-0.26-0.9-0.62-1.63-0.87-2.08
			c-0.09-0.17-0.19-0.32-0.29-0.47l0-0.01c-0.18-0.29-0.33-0.52-0.47-0.7c-0.36-0.47-0.65-0.66-0.95-0.66c-0.01,0-0.02,0-0.03,0
			c-0.01,0-0.02,0-0.03,0c-0.3,0-0.58,0.2-0.95,0.66c-0.14,0.18-0.29,0.41-0.47,0.7l-0.02,0.03c-0.09,0.14-0.19,0.29-0.28,0.46
			c-0.25,0.45-0.61,1.18-0.87,2.08h-1.03c-0.96,0-1.74,0.72-1.82,1.67l-1.05,11.8c-0.05,0.51,0.13,1.02,0.47,1.4
			c0.34,0.38,0.84,0.59,1.35,0.59h9.71c0.5,0,0.99-0.21,1.33-0.58C-560.5-361.12-560.32-361.62-560.35-362.13z M-568.04-376.9
			c0.1-0.2,0.21-0.4,0.33-0.61c0.2-0.32,0.38-0.56,0.51-0.72c0.13,0.16,0.31,0.4,0.51,0.71c0.13,0.22,0.23,0.41,0.33,0.61
			c0.17,0.34,0.35,0.77,0.52,1.27h-2.71C-568.39-376.13-568.2-376.56-568.04-376.9z M-571.37-362.49l0.97-10.84h1.39l0.03,0l0,0
			h3.57l0,0l0.03,0h1.99l0.71,10.84H-571.37z"/>
		<g>
			<path class="st1" d="M-576.9-375.2c0,6.38-1.93,7.62-4.61,7.62l0.66-0.94c0,0,0.61-0.91,0.61-2.43c0-1.52-0.43-2.28-1.18-3.55
				c-3.93-4.8-12.37-9.88-16.44-14.98c-1.52-2.13,2.89,18.98,12.3,23.23l-6.08,8.2l0.15,4.71l8.22-11.74v0
				c4.54,0.2,8.79-1.92,8.79-6.78c0-4.86,0.61-6.98,2.73-6.98v-2.13C-571.74-380.97-576.9-381.58-576.9-375.2z M-593.16-381.73
				c6.08,5.47,12.76,9.11,9.11,13.67C-589.51-370.8-593.66-382.18-593.16-381.73z"/>
		</g>
		<g>
			<polygon class="st1" points="-571.74,-380.97 -562.32,-378.54 -571.74,-378.84 			"/>
		</g>
	</g>
</g>
</svg>
