<?xml version="1.0" encoding="utf-8"?>
<!-- Generator: Adobe Illustrator 24.1.2, SVG Export Plug-In . SVG Version: 6.00 Build 0)  -->
<svg version="1.1" id="Capa_1" xmlns="http://www.w3.org/2000/svg" xmlns:xlink="http://www.w3.org/1999/xlink" x="0px" y="0px"
	 viewBox="0 0 23 20" style="enable-background:new 0 0 23 20;" xml:space="preserve">
<style type="text/css">
	.st0{fill:#003A45;}
</style>
<g id="menu_10_">
	<path class="st0" d="M20.66,1.79H2.1C1.17,1.82,0.42,2.57,0.39,3.5C0.36,4.47,1.12,5.29,2.1,5.32h18.56
		c0.93-0.03,1.68-0.78,1.71-1.71C22.4,2.64,21.63,1.82,20.66,1.79z"/>
	<path class="st0" d="M20.9,8.11H2.34C1.41,8.14,0.66,8.88,0.63,9.82c-0.03,0.98,0.73,1.79,1.71,1.83H20.9
		c0.93-0.03,1.68-0.78,1.71-1.71C22.64,8.96,21.88,8.14,20.9,8.11z"/>
	<path class="st0" d="M20.9,14.68H2.34c-0.93,0.03-1.68,0.78-1.71,1.71c-0.03,0.98,0.73,1.79,1.71,1.83H20.9
		c0.93-0.03,1.68-0.78,1.71-1.71C22.64,15.53,21.88,14.71,20.9,14.68z"/>
</g>
</svg>
