<?xml version="1.0" encoding="utf-8"?>
<!-- Generator: Adobe Illustrator 24.1.2, SVG Export Plug-In . SVG Version: 6.00 Build 0)  -->
<svg version="1.1" id="Capa_1" xmlns="http://www.w3.org/2000/svg" xmlns:xlink="http://www.w3.org/1999/xlink" x="0px" y="0px"
	 viewBox="0 0 23 20" style="enable-background:new 0 0 23 20;" xml:space="preserve">
<style type="text/css">
	.st0{fill:#003A45;}
</style>
<g id="search_10_" transform="translate(1130.782 7.869)">
	<g>
		<path id="Trazado_20_8_" class="st0" d="M-1109.36,10.78l-4.51-4.51c-0.01-0.01-0.03-0.02-0.05-0.03
			c2.99-3.77,2.36-9.24-1.41-12.23s-9.24-2.36-12.23,1.41c-2.99,3.77-2.36,9.24,1.41,12.23c3.3,2.61,7.99,2.5,11.15-0.28
			c0,0,0.01,0.01,0.01,0.02l4.51,4.51c0.31,0.31,0.81,0.31,1.11,0C-1109.05,11.59-1109.05,11.1-1109.36,10.78L-1109.36,10.78z
			 M-1120.69,7.95c-3.91,0-7.08-3.17-7.08-7.08s3.17-7.08,7.08-7.08c3.91,0,7.08,3.17,7.08,7.08
			C-1113.62,4.78-1116.78,7.95-1120.69,7.95L-1120.69,7.95z"/>
	</g>
</g>
</svg>
