<?xml version="1.0" encoding="utf-8"?>
<!-- Generator: Adobe Illustrator 24.1.2, SVG Export Plug-In . SVG Version: 6.00 Build 0)  -->
<svg version="1.1" id="Capa_1" xmlns="http://www.w3.org/2000/svg" xmlns:xlink="http://www.w3.org/1999/xlink" x="0px" y="0px"
	 viewBox="0 0 23 20" style="enable-background:new 0 0 23 20;" xml:space="preserve">
<style type="text/css">
	.st0{fill:#003A45;}
</style>
<path class="st0" d="M21.28,17.65L19.99,6.79c-0.13-1.06-1.02-1.85-2.09-1.85l0,0h-2.06c-0.15-2.04-0.91-4.92-4.6-4.92
	c-1.7-0.15-3.3,0.8-3.99,2.36C6.96,3.2,6.78,4.07,6.73,4.94h-1.8c-1.08,0-1.98,0.82-2.09,1.89L1.72,17.68
	c-0.12,1.16,0.72,2.19,1.88,2.31C3.67,20,3.74,20,3.81,20h15.38c1.16,0,2.1-0.94,2.1-2.1C21.29,17.81,21.29,17.73,21.28,17.65z
	 M8.6,2.96c0.28-0.63,0.85-1.47,2.64-1.47c2.19,0,2.92,1.34,3.11,3.45H8.21C8.26,4.27,8.39,3.6,8.6,2.96z M19.27,18.52
	c-0.03,0-0.05,0-0.08,0H3.81c-0.35,0-0.63-0.28-0.63-0.63c0-0.02,0-0.04,0-0.07L4.3,6.98c0.03-0.32,0.3-0.57,0.63-0.57h1.79v3.47
	c-0.39,0.25-0.65,0.68-0.65,1.17c0,0.77,0.62,1.39,1.39,1.39c0.77,0,1.39-0.62,1.39-1.39c0-0.49-0.26-0.92-0.65-1.17l0-3.47h6.22
	v3.27c-0.39,0.25-0.65,0.68-0.65,1.17c0,0.77,0.62,1.39,1.39,1.39c0.77,0,1.39-0.62,1.39-1.39c0-0.49-0.26-0.92-0.65-1.17V6.41h2.01
	l0,0c0.32,0,0.59,0.24,0.63,0.56l1.29,10.85C19.86,18.17,19.61,18.48,19.27,18.52z"/>
</svg>
