<?xml version="1.0" encoding="utf-8"?>
<!-- Generator: Adobe Illustrator 24.1.2, SVG Export Plug-In . SVG Version: 6.00 Build 0)  -->
<svg version="1.1" id="Capa_1" xmlns="http://www.w3.org/2000/svg" xmlns:xlink="http://www.w3.org/1999/xlink" x="0px" y="0px"
	 viewBox="0 0 23 20" style="enable-background:new 0 0 23 20;" xml:space="preserve">
<style type="text/css">
	.st0{fill:#003A45;}
</style>
<g id="user_10_" transform="translate(1175.175 7.034)">
	<g>
		<g id="Grupo_8_8_" transform="translate(4.558)">
			<path id="Trazado_18_8_" class="st0" d="M-1168.33,4.39c-3.16,0-5.71-2.56-5.71-5.71c0-3.16,2.56-5.71,5.71-5.71
				c3.16,0,5.71,2.56,5.71,5.71C-1162.62,1.83-1165.17,4.39-1168.33,4.39z M-1168.33-5.61c-2.37,0-4.29,1.92-4.29,4.29
				c0,2.37,1.92,4.29,4.29,4.29c2.37,0,4.29-1.92,4.29-4.29c0,0,0,0,0,0C-1164.04-3.69-1165.96-5.6-1168.33-5.61z"/>
		</g>
		<g id="Grupo_9_8_" transform="translate(0 13.352)">
			<path id="Trazado_19_8_" class="st0" d="M-1163.67-7.53c5.1,0,6.43,1.98,7.85,4.08c0.1,0.15,0.2,0.29,0.3,0.44
				c0.24,0.35,0.15,0.83-0.2,1.06c-0.13,0.09-0.28,0.13-0.43,0.13h-15.03c-0.43,0-0.77-0.35-0.76-0.78c0-0.15,0.05-0.3,0.13-0.42
				c0.1-0.14,0.2-0.29,0.3-0.44C-1170.11-5.55-1168.77-7.53-1163.67-7.53 M-1163.67-8.96c-6.23,0-7.72,2.79-9.32,5.14
				c-0.69,1-0.43,2.37,0.57,3.05c0.37,0.25,0.8,0.38,1.24,0.38h15.03c1.21,0,2.19-0.98,2.19-2.2c0-0.44-0.13-0.87-0.38-1.24
				C-1155.96-6.16-1157.44-8.96-1163.67-8.96L-1163.67-8.96z"/>
		</g>
	</g>
</g>
</svg>
